<svg id="Ebene_1" data-name="Ebene 1" xmlns="http://www.w3.org/2000/svg" viewBox="0 0 85 85"><defs><style>.cls-1{fill:#fbb825;}.cls-2{font-size:30.53px;font-family:ArialMT, Arial;letter-spacing:-0.04em;}.cls-2,.cls-4{fill:#1d1d1b;}.cls-3{letter-spacing:0em;}</style></defs><title>Zeichenfläche 1</title><circle class="cls-1" cx="42.5" cy="42.5" r="41.1"/><text class="cls-2" transform="translate(12.17 62.3) scale(0.78 1)">L<tspan class="cls-3" x="15.84" y="0" xml:space="preserve"> { p }</tspan></text><path class="cls-4" d="M53.41,32.69a15.91,15.91,0,0,1-22.74,0,16.52,16.52,0,0,1,0-23.08,15.89,15.89,0,0,1,22.74,0,16.52,16.52,0,0,1,0,23.08m-2-10.36a18.13,18.13,0,0,1-1.12,5.23A16.84,16.84,0,0,1,53,29.61a14,14,0,0,0,2.76-7.28Zm-1.12-7.6A18.2,18.2,0,0,1,51.39,20h4.34A14,14,0,0,0,53,12.68,15.75,15.75,0,0,1,50.27,14.73ZM45.43,7.62c.27.24.53.5.79.76a18.1,18.1,0,0,1,3.07,4.18,13.34,13.34,0,0,0,2.11-1.63A13.74,13.74,0,0,0,45.43,7.62ZM34.79,12.56a18.1,18.1,0,0,1,3.07-4.18l.79-.76a13.74,13.74,0,0,0-6,3.31A13.34,13.34,0,0,0,34.79,12.56ZM32.69,20a18.2,18.2,0,0,1,1.12-5.23,15.3,15.3,0,0,1-2.69-2.05A14,14,0,0,0,28.35,20Zm1.12,7.6a18.13,18.13,0,0,1-1.12-5.23H28.35a13.9,13.9,0,0,0,2.77,7.28A16.33,16.33,0,0,1,33.81,27.56Zm4.84,7.11c-.27-.24-.53-.49-.79-.75a18,18,0,0,1-3.07-4.19,14,14,0,0,0-2.11,1.63A13.64,13.64,0,0,0,38.65,34.67Zm2.22-20.06V8.82c-.47.39-.93.8-1.36,1.23a15.84,15.84,0,0,0-2.64,3.59A13.39,13.39,0,0,0,40.87,14.61Zm0,5.35V17a15.87,15.87,0,0,1-5-1.19A16,16,0,0,0,35,20Zm0,5.34v-3H35a15.88,15.88,0,0,0,.88,4.16A15.87,15.87,0,0,1,40.87,25.3Zm0,8.17V27.68a13.39,13.39,0,0,0-4,1,15.41,15.41,0,0,0,2.64,3.59A15.73,15.73,0,0,0,40.87,33.47Zm2.34-5.79v5.79a15.73,15.73,0,0,0,1.36-1.23,15.41,15.41,0,0,0,2.64-3.59A13.39,13.39,0,0,0,43.21,27.68Zm0-5.35v3a15.87,15.87,0,0,1,5,1.19,15.88,15.88,0,0,0,.88-4.16Zm0-5.34v3h5.84a16,16,0,0,0-.88-4.16A15.87,15.87,0,0,1,43.21,17Zm0-8.17v5.8a13.41,13.41,0,0,0,4-1,15.84,15.84,0,0,0-2.64-3.59C44.14,9.62,43.68,9.21,43.21,8.82Zm2.22,25.85a13.64,13.64,0,0,0,6-3.31,14,14,0,0,0-2.11-1.63,18,18,0,0,1-3.07,4.19C46,34.18,45.7,34.43,45.43,34.67Z"/></svg>